<svg width="18" height="18" viewBox="0 0 18 18" fill="none" xmlns="http://www.w3.org/2000/svg">
<g clip-path="url(#clip0_10_20)">
<path d="M8.965 6.65C9.3516 6.65 9.665 6.3366 9.665 5.95C9.665 5.5634 9.3516 5.25 8.965 5.25C8.5784 5.25 8.265 5.5634 8.265 5.95C8.265 6.3366 8.5784 6.65 8.965 6.65Z" fill="#727272"/>
<path d="M10.5 11.5H9.5V7.5H8C7.86739 7.5 7.74021 7.55268 7.64645 7.64645C7.55268 7.74021 7.5 7.86739 7.5 8C7.5 8.13261 7.55268 8.25979 7.64645 8.35355C7.74021 8.44732 7.86739 8.5 8 8.5H8.5V11.5H7.5C7.36739 11.5 7.24021 11.5527 7.14645 11.6464C7.05268 11.7402 7 11.8674 7 12C7 12.1326 7.05268 12.2598 7.14645 12.3536C7.24021 12.4473 7.36739 12.5 7.5 12.5H10.5C10.6326 12.5 10.7598 12.4473 10.8536 12.3536C10.9473 12.2598 11 12.1326 11 12C11 11.8674 10.9473 11.7402 10.8536 11.6464C10.7598 11.5527 10.6326 11.5 10.5 11.5Z" fill="#727272"/>
<path d="M9 3C7.81331 3 6.65328 3.35189 5.66658 4.01118C4.67989 4.67047 3.91085 5.60754 3.45673 6.7039C3.0026 7.80026 2.88378 9.00666 3.11529 10.1705C3.3468 11.3344 3.91825 12.4035 4.75736 13.2426C5.59648 14.0818 6.66558 14.6532 7.82946 14.8847C8.99335 15.1162 10.1997 14.9974 11.2961 14.5433C12.3925 14.0892 13.3295 13.3201 13.9888 12.3334C14.6481 11.3467 15 10.1867 15 9C15 7.4087 14.3679 5.88258 13.2426 4.75736C12.1174 3.63214 10.5913 3 9 3ZM9 14C8.0111 14 7.0444 13.7068 6.22215 13.1573C5.39991 12.6079 4.75904 11.827 4.38061 10.9134C4.00217 9.99979 3.90315 8.99445 4.09608 8.02455C4.289 7.05464 4.76521 6.16373 5.46447 5.46447C6.16373 4.7652 7.05465 4.289 8.02455 4.09607C8.99446 3.90315 9.99979 4.00216 10.9134 4.3806C11.8271 4.75904 12.6079 5.3999 13.1574 6.22215C13.7068 7.04439 14 8.01109 14 9C14 9.65661 13.8707 10.3068 13.6194 10.9134C13.3681 11.52 12.9998 12.0712 12.5355 12.5355C12.0712 12.9998 11.52 13.3681 10.9134 13.6194C10.3068 13.8707 9.65661 14 9 14Z" fill="#727272"/>
</g>
<defs>
<clipPath id="clip0_10_20">
<rect width="18" height="18" fill="white"/>
</clipPath>
</defs>
</svg>
